<svg width="158" height="145" viewBox="0 0 158 145" fill="none" xmlns="http://www.w3.org/2000/svg">
<path d="M103.822 103.779C113.676 113.633 129.652 113.633 139.506 103.779C149.36 93.9248 149.36 77.9483 139.506 68.0943C129.652 58.2402 113.676 58.2402 103.822 68.0943C93.9675 77.9483 93.9675 93.9248 103.822 103.779Z" fill="url(#paint0_linear_436_128)"/>
<path d="M15.6242 106.983C23.7314 107.655 30.8478 101.626 31.5189 93.5191C32.19 85.4118 26.1618 78.2955 18.0545 77.6244C9.94725 76.9532 2.83094 82.9814 2.15981 91.0887C1.48867 99.196 7.51687 106.312 15.6242 106.983Z" fill="#DC93FF"/>
<path d="M69.0228 144.425C74.6484 144.706 79.4364 140.373 79.7169 134.747C79.9974 129.121 75.6642 124.333 70.0385 124.053C64.4128 123.772 59.6249 128.105 59.3444 133.731C59.0639 139.357 63.3971 144.145 69.0228 144.425Z" fill="#C86EFF"/>
<path d="M56.2933 39.6374C66.4486 40.8877 75.6947 33.6688 76.9451 23.5135C78.1955 13.3581 70.9766 4.112 60.8212 2.86163C50.6659 1.61127 41.4197 8.83019 40.1694 18.9855C38.919 29.1409 46.1379 38.387 56.2933 39.6374Z" fill="#BB4DFF"/>
<path d="M91.1723 133.869C93.9749 136.672 98.5156 136.672 101.318 133.869C104.121 131.066 104.121 126.526 101.318 123.723C98.5156 120.92 93.9749 120.92 91.1723 123.723C88.3698 126.523 88.3698 131.066 91.1723 133.869Z" fill="#BB4DFF"/>
<path d="M4.63207 50.6854C4.63207 59.8736 12.0805 67.322 21.2687 67.322C30.4568 67.322 37.9053 59.8736 37.9053 50.6854C37.9053 41.4973 30.4568 34.0488 21.2687 34.0488C12.0805 34.0488 4.63207 41.4973 4.63207 50.6854Z" fill="#C86EFF"/>
<path d="M25.287 121.621C25.287 128.59 30.9364 134.239 37.9052 134.239C44.8741 134.239 50.5234 128.59 50.5234 121.621C50.5234 114.652 44.8741 109.003 37.9052 109.003C30.9364 109.003 25.287 114.652 25.287 121.621Z" fill="#DC93FF"/>
<path d="M89.0703 34.0484C89.0703 45.0783 98.0118 54.0197 109.042 54.0197C120.071 54.0197 129.013 45.0783 129.013 34.0484C129.013 23.0186 120.071 14.0771 109.042 14.0771C98.0118 14.0771 89.0704 23.0186 89.0703 34.0484Z" fill="url(#paint1_linear_436_128)"/>
<defs>
<linearGradient id="paint0_linear_436_128" x1="81.2499" y1="31.4238" x2="149.104" y2="137.813" gradientUnits="userSpaceOnUse">
<stop stop-color="#E546FF"/>
<stop offset="0.749168" stop-color="#7240FF"/>
</linearGradient>
<linearGradient id="paint1_linear_436_128" x1="91.8133" y1="-3.27641" x2="148.063" y2="82.6611" gradientUnits="userSpaceOnUse">
<stop stop-color="#CE42FF"/>
<stop offset="0.9916" stop-color="#7B4DFF"/>
</linearGradient>
</defs>
</svg>
