<svg id="Layer_1" data-name="Layer 1" xmlns="http://www.w3.org/2000/svg" viewBox="0 0 529.02 195.59"><defs><style>.cls-1{font-size:54.04px;font-family:Rift-Demi, Rift;font-weight:300;letter-spacing:0.2em;}.cls-1,.cls-3,.cls-4{fill:#fff;}.cls-2{letter-spacing:0.19em;}.cls-3{font-size:81.66px;font-family:UTM-Eremitage, UTM Eremitage;font-style:italic;letter-spacing:0.1em;}</style></defs><title>LOGO R-GALAXY</title><text class="cls-1" transform="translate(230.89 79.13)">RADIAN<tspan class="cls-2" x="196.32" y="0">T</tspan></text><text class="cls-3" transform="translate(184.91 150.26)">ALAXY</text><polygon class="cls-4" points="509.79 117.25 511.23 121.91 515.89 123.35 511.23 124.79 509.79 129.45 508.35 124.79 503.69 123.35 508.35 121.91 509.79 117.25"/><polygon class="cls-4" points="140.85 91.14 143.11 109.68 98.43 109.68 143.13 54.37 160.96 69.57 144.41 9.28 41.4 135.77 147.9 135.77 153.14 163.97 176.86 91.14 140.85 91.14"/><polygon class="cls-4" points="176.86 95.9 176.35 97.51 179.38 97.51 152.53 179.23 145 141.65 39.2 141.51 42.98 136.78 40.83 136.8 35.58 143.12 143.68 143.25 152.15 185.54 181.6 95.9 176.86 95.9"/><polygon class="cls-4" points="160.98 75.44 142.53 59.72 103.05 108.57 105.13 108.57 142.75 62.02 163.81 79.97 161.18 71.62 158.98 69.72 160.98 75.44"/><polygon class="cls-4" points="137.77 97.51 140.49 97.51 140.27 95.9 135.88 95.9 137.95 108.57 139.58 108.57 137.77 97.51"/><polygon class="cls-4" points="22.1 123.35 24.22 130.2 31.07 132.32 24.22 134.44 22.1 141.29 19.98 134.44 13.13 132.32 19.98 130.2 22.1 123.35"/></svg>