<svg width="231" height="59" viewBox="0 0 231 59" fill="none" xmlns="http://www.w3.org/2000/svg">
<path d="M49.669 32.9834C48.4388 30.5358 46.7456 28.3643 44.6995 26.5791C45.9937 28.7991 45.4003 31.8708 42.9143 33.3057L31.9958 39.6102L24.6144 43.8712C23.484 44.6846 22.2691 45.3879 20.9852 45.9659L20.8368 46.0529C20.3688 46.324 19.8803 46.5056 19.3917 46.6079C17.2024 47.3829 14.8468 47.81 12.3915 47.81C11.8186 47.81 11.2508 47.7793 10.6907 47.7358C7.4783 47.4775 4.47053 46.4954 1.83105 44.9506C1.93336 45.0222 2.03567 45.0887 2.14309 45.1526L11.7086 50.6745L23.6016 57.5469C24.9265 58.3116 26.5557 58.3116 27.8805 57.5469L49.3442 45.1552C50.669 44.3904 51.4823 42.9786 51.4823 41.4492V38.2368C51.1115 36.3851 50.4925 34.6229 49.669 32.9834Z" fill="url(#paint0_linear)"/>
<path d="M49.3421 12.9627L27.881 0.570933C26.9296 0.021042 25.8196 -0.129858 24.7786 0.110559C21.8092 1.62212 19.249 3.82168 17.3078 6.49952C15.5353 8.9395 14.277 11.7785 13.6938 14.8553C14.5762 11.9729 18.0086 10.4332 20.8348 12.0649L31.4668 18.2032L42.9173 24.8147C43.7 25.2674 44.2959 25.8838 44.7026 26.582C46.7487 28.3647 48.4418 30.5361 49.672 32.9863C50.4956 34.6258 51.1145 36.388 51.4854 38.2397V30.7305V16.6687C51.4828 15.1392 50.667 13.7274 49.3421 12.9627Z" fill="url(#paint1_linear)"/>
<path d="M13.4762 41.8079V30.8024V21.3034V16.3109C13.4762 16.2904 13.4787 16.27 13.4787 16.252C13.4838 15.761 13.5606 15.2929 13.6936 14.8556C14.2793 11.7788 15.5376 8.93978 17.3075 6.4998C19.2487 3.82452 21.8089 1.62496 24.7783 0.11084C24.3717 0.205472 23.9752 0.356372 23.6018 0.571213L14.2076 5.99595L2.13818 12.9629C0.815884 13.7277 0 15.1395 0 16.6689V41.4498C0 42.854 0.688003 44.1584 1.82615 44.9538C4.46562 46.4986 7.4734 47.4807 10.6858 47.739C11.2485 47.7851 11.8137 47.8132 12.3866 47.8132C14.8419 47.8132 17.1975 47.3861 19.3868 46.6111C16.4737 47.2352 13.4762 45.0433 13.4762 41.8079Z" fill="url(#paint2_linear)"/>
<path d="M94.3416 36.7831C94.3416 39.7651 93.2796 42.2292 91.1556 44.1504C89.0315 46.0715 86.4057 47.0238 83.32 47.0238H68.3179V11.6992H82.2663C85.3019 11.6992 87.8273 12.6598 89.8928 14.5309C91.9667 16.3936 93.0287 18.7658 93.0287 21.6476C93.0287 24.5711 91.9165 26.9433 89.6921 28.7141C92.7779 30.4766 94.3416 33.1997 94.3416 36.7831ZM75.2921 18.2062V25.9827H82.2663C84.4406 25.9827 86.0545 24.3121 86.0545 22.0986C86.0545 19.8851 84.4907 18.2062 82.2663 18.2062H75.2921ZM83.3284 40.5252C85.7033 40.5252 87.4176 38.7544 87.4176 36.332C87.4176 33.9598 85.7033 32.1973 83.3284 32.1973H75.2921V40.5252H83.3284Z" fill="white"/>
<path d="M98.3477 15.6842C98.3477 13.5709 100.162 11.75 102.337 11.75C104.561 11.75 106.376 13.5709 106.376 15.6842C106.376 17.8059 104.561 19.5683 102.337 19.5683C100.171 19.5767 98.3477 17.8059 98.3477 15.6842ZM99.1086 47.0328V21.7902H105.631V47.0244H99.1086V47.0328Z" fill="white"/>
<path d="M126.554 28.0539H120.842V38.5535C120.842 41.2766 122.816 41.3267 126.554 41.1262V47.0318C117.606 48.0425 114.328 45.4698 114.328 38.5535V28.0539H109.929V21.7975H114.328V16.7022L120.842 14.731V21.7975H126.554V28.0539Z" fill="white"/>
<path d="M145.562 11.6992C148.948 11.6992 151.825 12.8603 154.15 15.1323C156.474 17.4043 157.637 20.2359 157.637 23.5604C157.637 26.8932 156.474 29.7248 154.15 31.9885C151.825 34.2605 148.948 35.4215 145.562 35.4215H139.348V47.0321H132.374V11.6992H145.562ZM145.562 28.9146C148.547 28.9146 150.721 26.5925 150.721 23.5604C150.721 20.4782 148.547 18.2062 145.562 18.2062H139.348V28.9063H145.562V28.9146Z" fill="white"/>
<path d="M162.403 47.0323V10.1875H168.925V47.0323H162.403Z" fill="white"/>
<path d="M194.598 21.7901H201.113V47.0243H194.598V44.0423C192.625 46.5148 189.899 47.7259 186.361 47.7259C182.975 47.7259 180.098 46.4646 177.673 43.8919C175.298 41.3192 174.085 38.1368 174.085 34.403C174.085 30.6692 175.298 27.5369 177.673 24.9642C180.098 22.3915 182.975 21.0801 186.361 21.0801C189.899 21.0801 192.625 22.2913 194.598 24.7637V21.7901ZM187.574 41.5281C189.598 41.5281 191.262 40.8765 192.575 39.5568C193.938 38.1952 194.598 36.4745 194.598 34.4114C194.598 32.3398 193.946 30.6275 192.575 29.3077C191.262 27.9462 189.598 27.2863 187.574 27.2863C185.55 27.2863 183.886 27.9462 182.573 29.3077C181.26 30.6191 180.6 32.3398 180.6 34.4114C180.6 36.4745 181.252 38.1952 182.573 39.5568C183.886 40.8765 185.559 41.5281 187.574 41.5281Z" fill="white"/>
<path d="M224.025 21.7896H231L221.801 47.0238C219.175 54.2909 214.927 57.4733 208.463 57.1142V51.0583C211.95 51.1084 213.874 49.6466 215.086 46.2136L204.725 21.7812H211.85L218.423 38.7461L224.025 21.7896Z" fill="white"/>
<defs>
<linearGradient id="paint0_linear" x1="18.9723" y1="54.1248" x2="53.724" y2="48.4751" gradientUnits="userSpaceOnUse">
<stop stop-color="#FC2A67"/>
<stop offset="1" stop-color="#FFA242"/>
</linearGradient>
<linearGradient id="paint1_linear" x1="51.4854" y1="27.0144" x2="15.1363" y2="7.06483" gradientUnits="userSpaceOnUse">
<stop stop-color="#FC2A67"/>
<stop offset="1" stop-color="#FFA242"/>
</linearGradient>
<linearGradient id="paint2_linear" x1="12.3892" y1="6.29786" x2="30.1881" y2="37.7364" gradientUnits="userSpaceOnUse">
<stop stop-color="#FC2A67"/>
<stop offset="1" stop-color="#FFA242"/>
</linearGradient>
</defs>
</svg>
